<svg xmlns="http://www.w3.org/2000/svg" width="256" height="256" viewBox="0 0 128 128"><rect width="128" height="128" fill="#9b8257"/><path d="M8 3l-4 7h8Z M8 10v3" fill="#365c49" stroke="#365c49" opacity=".4"/><path d="M24 3l-4 7h8Z M24 10v3" fill="#365c49" stroke="#365c49" opacity=".4"/><path d="M40 3l-4 7h8Z M40 10v3" fill="#365c49" stroke="#365c49" opacity=".4"/><path d="M56 3l-4 7h8Z M56 10v3" fill="#365c49" stroke="#365c49" opacity=".4"/><path d="M72 3l-4 7h8Z M72 10v3" fill="#365c49" stroke="#365c49" opacity=".4"/><path d="M88 3l-4 7h8Z M88 10v3" fill="#365c49" stroke="#365c49" opacity=".4"/><path d="M104 3l-4 7h8Z M104 10v3" fill="#365c49" stroke="#365c49" opacity=".4"/><path d="M120 3l-4 7h8Z M120 10v3" fill="#365c49" stroke="#365c49" opacity=".4"/><path d="M8 19l-4 7h8Z M8 26v3" fill="#365c49" stroke="#365c49" opacity=".4"/><path d="M24 19l-4 7h8Z M24 26v3" fill="#365c49" stroke="#365c49" opacity=".4"/><path d="M40 19l-4 7h8Z M40 26v3" fill="#365c49" stroke="#365c49" opacity=".4"/><path d="M56 19l-4 7h8Z M56 26v3" fill="#365c49" stroke="#365c49" opacity=".4"/><path d="M72 19l-4 7h8Z M72 26v3" fill="#365c49" stroke="#365c49" opacity=".4"/><path d="M88 19l-4 7h8Z M88 26v3" fill="#365c49" stroke="#365c49" opacity=".4"/><path d="M104 19l-4 7h8Z M104 26v3" fill="#365c49" stroke="#365c49" opacity=".4"/><path d="M120 19l-4 7h8Z M120 26v3" fill="#365c49" stroke="#365c49" opacity=".4"/><path d="M8 35l-4 7h8Z M8 42v3" fill="#365c49" stroke="#365c49" opacity=".4"/><path d="M24 35l-4 7h8Z M24 42v3" fill="#365c49" stroke="#365c49" opacity=".4"/><path d="M40 35l-4 7h8Z M40 42v3" fill="#365c49" stroke="#365c49" opacity=".4"/><path d="M56 35l-4 7h8Z M56 42v3" fill="#365c49" stroke="#365c49" opacity=".4"/><path d="M72 35l-4 7h8Z M72 42v3" fill="#365c49" stroke="#365c49" opacity=".4"/><path d="M88 35l-4 7h8Z M88 42v3" fill="#365c49" stroke="#365c49" opacity=".4"/><path d="M104 35l-4 7h8Z M104 42v3" fill="#365c49" stroke="#365c49" opacity=".4"/><path d="M120 35l-4 7h8Z M120 42v3" fill="#365c49" stroke="#365c49" opacity=".4"/><path d="M8 51l-4 7h8Z M8 58v3" fill="#365c49" stroke="#365c49" opacity=".4"/><path d="M24 51l-4 7h8Z M24 58v3" fill="#365c49" stroke="#365c49" opacity=".4"/><path d="M40 51l-4 7h8Z M40 58v3" fill="#365c49" stroke="#365c49" opacity=".4"/><path d="M56 51l-4 7h8Z M56 58v3" fill="#365c49" stroke="#365c49" opacity=".4"/><path d="M72 51l-4 7h8Z M72 58v3" fill="#365c49" stroke="#365c49" opacity=".4"/><path d="M88 51l-4 7h8Z M88 58v3" fill="#365c49" stroke="#365c49" opacity=".4"/><path d="M104 51l-4 7h8Z M104 58v3" fill="#365c49" stroke="#365c49" opacity=".4"/><path d="M120 51l-4 7h8Z M120 58v3" fill="#365c49" stroke="#365c49" opacity=".4"/><path d="M8 67l-4 7h8Z M8 74v3" fill="#365c49" stroke="#365c49" opacity=".4"/><path d="M24 67l-4 7h8Z M24 74v3" fill="#365c49" stroke="#365c49" opacity=".4"/><path d="M40 67l-4 7h8Z M40 74v3" fill="#365c49" stroke="#365c49" opacity=".4"/><path d="M56 67l-4 7h8Z M56 74v3" fill="#365c49" stroke="#365c49" opacity=".4"/><path d="M72 67l-4 7h8Z M72 74v3" fill="#365c49" stroke="#365c49" opacity=".4"/><path d="M88 67l-4 7h8Z M88 74v3" fill="#365c49" stroke="#365c49" opacity=".4"/><path d="M104 67l-4 7h8Z M104 74v3" fill="#365c49" stroke="#365c49" opacity=".4"/><path d="M120 67l-4 7h8Z M120 74v3" fill="#365c49" stroke="#365c49" opacity=".4"/><path d="M8 83l-4 7h8Z M8 90v3" fill="#365c49" stroke="#365c49" opacity=".4"/><path d="M24 83l-4 7h8Z M24 90v3" fill="#365c49" stroke="#365c49" opacity=".4"/><path d="M40 83l-4 7h8Z M40 90v3" fill="#365c49" stroke="#365c49" opacity=".4"/><path d="M56 83l-4 7h8Z M56 90v3" fill="#365c49" stroke="#365c49" opacity=".4"/><path d="M72 83l-4 7h8Z M72 90v3" fill="#365c49" stroke="#365c49" opacity=".4"/><path d="M88 83l-4 7h8Z M88 90v3" fill="#365c49" stroke="#365c49" opacity=".4"/><path d="M104 83l-4 7h8Z M104 90v3" fill="#365c49" stroke="#365c49" opacity=".4"/><path d="M120 83l-4 7h8Z M120 90v3" fill="#365c49" stroke="#365c49" opacity=".4"/><path d="M8 99l-4 7h8Z M8 106v3" fill="#365c49" stroke="#365c49" opacity=".4"/><path d="M24 99l-4 7h8Z M24 106v3" fill="#365c49" stroke="#365c49" opacity=".4"/><path d="M40 99l-4 7h8Z M40 106v3" fill="#365c49" stroke="#365c49" opacity=".4"/><path d="M56 99l-4 7h8Z M56 106v3" fill="#365c49" stroke="#365c49" opacity=".4"/><path d="M72 99l-4 7h8Z M72 106v3" fill="#365c49" stroke="#365c49" opacity=".4"/><path d="M88 99l-4 7h8Z M88 106v3" fill="#365c49" stroke="#365c49" opacity=".4"/><path d="M104 99l-4 7h8Z M104 106v3" fill="#365c49" stroke="#365c49" opacity=".4"/><path d="M120 99l-4 7h8Z M120 106v3" fill="#365c49" stroke="#365c49" opacity=".4"/><path d="M8 115l-4 7h8Z M8 122v3" fill="#365c49" stroke="#365c49" opacity=".4"/><path d="M24 115l-4 7h8Z M24 122v3" fill="#365c49" stroke="#365c49" opacity=".4"/><path d="M40 115l-4 7h8Z M40 122v3" fill="#365c49" stroke="#365c49" opacity=".4"/><path d="M56 115l-4 7h8Z M56 122v3" fill="#365c49" stroke="#365c49" opacity=".4"/><path d="M72 115l-4 7h8Z M72 122v3" fill="#365c49" stroke="#365c49" opacity=".4"/><path d="M88 115l-4 7h8Z M88 122v3" fill="#365c49" stroke="#365c49" opacity=".4"/><path d="M104 115l-4 7h8Z M104 122v3" fill="#365c49" stroke="#365c49" opacity=".4"/><path d="M120 115l-4 7h8Z M120 122v3" fill="#365c49" stroke="#365c49" opacity=".4"/></svg>